<svg width="19" height="20" viewBox="0 0 19 20" fill="none" xmlns="http://www.w3.org/2000/svg">
<path d="M10.8807 2.585L16.8404 6.4588C17.0509 6.59568 17.1562 6.66412 17.2325 6.75541C17.3001 6.83623 17.3508 6.9297 17.3817 7.03036C17.4167 7.14408 17.4167 7.26966 17.4167 7.52083V13.3251C17.4167 14.6552 17.4167 15.3203 17.1578 15.8283C16.9301 16.2752 16.5668 16.6385 16.1199 16.8662C15.6119 17.1251 14.9468 17.1251 13.6167 17.1251H5.38337C4.05325 17.1251 3.38819 17.1251 2.88015 16.8662C2.43326 16.6385 2.06993 16.2752 1.84223 15.8283C1.58337 15.3203 1.58337 14.6552 1.58337 13.3251V7.52083C1.58337 7.26966 1.58337 7.14408 1.61834 7.03036C1.6493 6.9297 1.70002 6.83623 1.76755 6.75541C1.84384 6.66412 1.94913 6.59568 2.15972 6.4588L8.1194 2.585M10.8807 2.585C10.3809 2.26018 10.1311 2.09776 9.86185 2.03457C9.62388 1.97871 9.3762 1.97871 9.13823 2.03457C8.869 2.09776 8.61914 2.26018 8.1194 2.585M10.8807 2.585L16.5998 6.30241C16.872 6.47939 17.0082 6.56788 17.0553 6.68009C17.0965 6.77816 17.0965 6.88869 17.0553 6.98675C17.0082 7.09897 16.872 7.18746 16.5998 7.36444L10.8807 11.0818C10.3809 11.4067 10.1311 11.5691 9.86185 11.6323C9.62388 11.6881 9.3762 11.6881 9.13823 11.6323C8.86901 11.5691 8.61914 11.4067 8.1194 11.0818L2.40032 7.36444C2.12805 7.18746 1.99191 7.09897 1.94476 6.98675C1.90355 6.88869 1.90355 6.77816 1.94476 6.68009C1.99191 6.56788 2.12805 6.47939 2.40032 6.30241L8.1194 2.585" stroke="#4B5563" stroke-width="1.5" stroke-linecap="round" stroke-linejoin="round"/>
</svg>
