<svg width="19" height="20" viewBox="0 0 19 20" fill="none" xmlns="http://www.w3.org/2000/svg">
<path d="M12.6667 5.24992V4.61659C12.6667 3.72984 12.6667 3.28646 12.4941 2.94777C12.3423 2.64984 12.1001 2.40762 11.8022 2.25582C11.4635 2.08325 11.0201 2.08325 10.1333 2.08325H8.86667C7.97992 2.08325 7.53654 2.08325 7.19785 2.25582C6.89993 2.40762 6.65771 2.64984 6.50591 2.94777C6.33333 3.28646 6.33333 3.72984 6.33333 4.61659V5.24992M7.91667 9.60408V13.5624M11.0833 9.60408V13.5624M2.375 5.24992H16.625M15.0417 5.24992V14.1166C15.0417 15.4467 15.0417 16.1118 14.7828 16.6198C14.5551 17.0667 14.1918 17.43 13.7449 17.6577C13.2369 17.9166 12.5718 17.9166 11.2417 17.9166H7.75833C6.42821 17.9166 5.76315 17.9166 5.25511 17.6577C4.80822 17.43 4.44489 17.0667 4.21719 16.6198C3.95833 16.1118 3.95833 15.4467 3.95833 14.1166V5.24992" stroke="#4B5563" stroke-width="1.5" stroke-linecap="round" stroke-linejoin="round"/>
</svg>
